<?xml version="1.0" standalone="no"?>
<!DOCTYPE svg PUBLIC "-//W3C//DTD SVG 20010904//EN"
 "http://www.w3.org/TR/2001/REC-SVG-20010904/DTD/svg10.dtd">
<svg version="1.0" xmlns="http://www.w3.org/2000/svg"
 width="512.000000pt" height="512.000000pt" viewBox="0 0 512.000000 512.000000"
 preserveAspectRatio="xMidYMid meet">
<metadata>
Created by potrace 1.11, written by Peter Selinger 2001-2013
</metadata>
<g transform="translate(0.000000,512.000000) scale(0.100000,-0.100000)"
fill="#000000" stroke="none">
<path d="M2390 5114 c-19 -2 -78 -9 -130 -15 -574 -65 -1089 -316 -1506 -733
-417 -418 -653 -901 -735 -1506 -17 -122 -17 -478 0 -600 79 -586 311 -1072
705 -1479 521 -537 1265 -825 1994 -773 363 26 652 103 967 257 510 250 919
659 1170 1170 154 314 231 604 257 967 19 259 -12 567 -82 823 -166 606 -536
1119 -1057 1465 -330 219 -666 346 -1073 405 -102 15 -439 27 -510 19z m304
-48 c101 -42 104 -180 6 -231 -21 -11 -62 -15 -140 -15 -78 0 -119 4 -140 15
-97 50 -95 188 4 231 42 18 226 18 270 0z m637 -1589 l-372 -694 26 -76 c58
-174 15 -349 -117 -474 -85 -80 -189 -123 -299 -123 l-58 0 -303 -337 c-166
-186 -401 -448 -522 -583 -121 -135 -225 -246 -231 -248 -7 -2 -17 3 -23 11
-9 10 73 170 358 702 l369 690 -24 70 c-58 168 -14 348 117 472 90 85 189 123
318 123 l77 0 523 585 c288 322 525 583 528 581 2 -3 -163 -317 -367 -699z"/>
</g>
</svg>
